<svg width="131" height="26" viewBox="0 0 131 26" fill="none" xmlns="http://www.w3.org/2000/svg">
<path d="M0.600098 0.120605H8.63218C11.9772 0.161522 14.2278 0.161522 16.4371 1.92092C18.0064 3.18933 19.2246 5.17377 19.2246 8.07883C19.2246 12.8456 15.6938 14.5232 14.2691 14.9323L19.8647 25.0796H14.4756L9.47875 15.8325H5.26655V25.1H0.600098V0.120605ZM5.26655 4.15086V11.9659H6.89775C8.50829 11.9659 9.10709 11.925 9.99495 11.9045C11.0274 11.8636 14.4136 11.6999 14.4136 8.05837C14.4136 7.52646 14.3723 5.68523 12.4108 4.70323C11.4197 4.21224 10.2014 4.17132 7.41395 4.17132H5.26655V4.15086Z" fill="#363838"/>
<path d="M29.6725 4.29412V10.1656H41.8136V14.1959H29.6725V20.8857H43.8371V25.1001H25.0474V0.141113H42.9699V4.31458H29.6725V4.29412Z" fill="#363838"/>
<path d="M53.6245 10.5339H64.155V14.5232H53.6245V25.1001H48.958V0.141113H65.621V4.31458H53.6245V10.5339Z" fill="#363838"/>
<path d="M74.5406 20.8447H84.5342V25.0795H69.7915V0.100098H74.5406V20.8447Z" fill="#363838"/>
<path d="M92.1741 4.29412V10.1656H104.315V14.1959H92.1741V20.8857H106.339V25.1001H87.5283V0.141113H105.451V4.31458H92.1741V4.29412Z" fill="#363838"/>
<path d="M122.072 11.5568L130.6 25.1001H125.211L119.326 15.8734L113.586 25.1001H108.135L116.6 11.5568L109.353 0.141113H114.783L119.347 7.28101L123.703 0.141113H129.196L122.072 11.5568Z" fill="#363838"/>
</svg>
